<svg xmlns="http://www.w3.org/2000/svg" width="413" height="461" viewBox="0 0 413 461" version="1.1"><path d="M 194.500 82.123 C 174.667 83.489, 155.707 88.917, 137.198 98.527 C 122.897 105.953, 112.237 113.796, 100.517 125.517 C 69.269 156.764, 53.954 198.093, 57.165 242.504 C 61.906 308.068, 109.727 362.562, 175.306 377.129 C 189.714 380.330, 215.076 380.808, 230.500 378.169 C 271.555 371.146, 307.392 347.976, 330.196 313.712 C 332.835 309.745, 334.996 305.988, 334.997 305.361 C 334.999 304.510, 272.125 269, 270.615 269 C 270.460 269, 268.609 271.503, 266.502 274.562 C 258.526 286.143, 245.217 296.087, 230.926 301.144 C 188.782 316.057, 143.801 291.429, 133.517 247.811 C 131.369 238.696, 131.563 222.030, 133.925 212.792 C 139.259 191.938, 152.730 175.086, 172.139 164.989 C 183.034 159.320, 192.869 157, 206 157 C 231.773 157, 253.134 168.365, 268.446 190.226 C 269.710 192.031, 271.522 191.142, 301.879 173.817 C 319.532 163.743, 333.981 154.995, 333.988 154.378 C 334.016 151.775, 320.758 134.763, 311.483 125.502 C 299.752 113.787, 289.085 105.943, 274.802 98.527 C 256.592 89.072, 237.401 83.466, 219.735 82.440 C 214.656 82.145, 209.375 81.782, 208 81.634 C 206.625 81.486, 200.550 81.706, 194.500 82.123 M 178.500 221.618 C 177.400 221.871, 175.591 222.268, 174.480 222.500 C 173.369 222.733, 171.484 223.832, 170.292 224.943 C 168.137 226.951, 168.119 226.951, 167.494 224.982 C 167.030 223.521, 165.977 223, 163.483 223 L 160.100 223 159.800 228.750 L 159.500 234.500 154.750 234.805 L 150 235.110 150 229.677 C 150 223.480, 148.446 221.420, 144.513 222.407 C 142.183 222.992, 142 223.469, 142 228.960 C 142 232.217, 141.550 235.160, 141 235.500 C 140.450 235.840, 140 237.190, 140 238.500 C 140 239.810, 140.450 241.160, 141 241.500 C 141.550 241.840, 142 244.116, 142 246.559 C 142 250.756, 142.154 251, 144.800 251 C 148.482 251, 150 249.336, 150 245.300 C 150 242.056, 150.076 242, 154.500 242 L 159 242 159 246.500 C 159 250.949, 159.038 251, 162.393 251 C 164.453 251, 166.007 250.424, 166.349 249.533 C 166.826 248.289, 167.414 248.260, 170.206 249.343 C 172.491 250.230, 178.301 250.545, 189.173 250.374 C 202.382 250.166, 205.439 249.823, 208.617 248.192 C 212.372 246.265, 212.395 246.266, 214.055 248.317 C 215.450 250.039, 216.819 250.365, 222.421 250.313 C 226.620 250.273, 230.619 249.574, 233.136 248.439 C 237.241 246.587, 238.029 246.850, 239.322 250.500 C 239.534 251.099, 243.445 251.385, 249.072 251.213 C 257.548 250.955, 258.725 250.680, 261.099 248.405 C 263.015 246.570, 265.223 245.729, 269.209 245.318 C 274.485 244.773, 274.771 244.869, 276.938 247.914 C 278.697 250.383, 279.661 250.928, 281.345 250.403 C 285.034 249.252, 285.016 249.489, 282.496 235.250 L 281.744 231 286.336 231 L 290.928 231 291.214 240.750 C 291.492 250.237, 291.566 250.509, 293.944 250.845 C 297.730 251.379, 299 248.638, 299 239.931 C 299 231.833, 300.126 229.492, 303.690 230.179 C 305.996 230.623, 306.549 233.606, 304.897 236.693 C 303.910 238.536, 303.870 239.562, 304.730 240.939 C 305.353 241.937, 306.170 244.388, 306.545 246.386 C 307.053 249.097, 307.835 250.172, 309.626 250.621 C 312.356 251.306, 315.347 249.348, 314.589 247.372 C 313.633 244.879, 315.982 244.916, 319.714 247.452 C 323.942 250.325, 328.139 250.742, 330.019 248.477 C 331.144 247.122, 331.533 247.120, 333.571 248.454 C 337.184 250.822, 343.012 251.338, 347.730 249.708 C 351.316 248.470, 352.135 248.457, 353.103 249.624 C 354.769 251.632, 358.765 251.307, 359.965 249.066 C 360.534 248.002, 361 245.377, 361 243.232 C 361 241.088, 361.297 239.036, 361.660 238.673 C 362.023 238.310, 364.761 240.710, 367.744 244.007 C 377.146 254.396, 381.204 251.637, 381.841 234.425 C 382.191 224.960, 382.074 224.158, 380.251 223.580 C 375.724 222.143, 374.038 224.757, 374.014 233.250 C 373.997 238.881, 372.324 239.511, 369.606 234.910 C 366.472 229.605, 361.881 225, 359.725 225 C 358.588 225, 356.904 225.682, 355.983 226.515 C 354.477 227.878, 354.027 227.809, 351.502 225.823 C 347.674 222.812, 340.487 222.805, 336.270 225.808 C 332.399 228.564, 332.186 228.553, 328.887 225.391 C 326.713 223.309, 324.880 222.680, 319.801 222.272 C 314.034 221.809, 313.151 222.002, 310.383 224.331 C 307.509 226.750, 307.229 226.801, 305.629 225.200 C 303.403 222.975, 285.716 222.744, 281.710 224.888 C 279.330 226.161, 278.858 226.058, 275.981 223.638 C 274.257 222.187, 272.016 221, 271 221 C 267.907 221, 263.061 225.935, 259.822 232.383 C 258.133 235.748, 256.107 238.874, 255.320 239.331 C 254.533 239.788, 253.464 241.279, 252.945 242.644 C 252.165 244.695, 251.436 245.072, 248.751 244.813 L 245.500 244.500 245.918 237.500 C 246.783 222.986, 246.731 222.533, 244.168 222.170 C 242.885 221.988, 240.986 222.608, 239.947 223.548 C 238.166 225.160, 237.847 225.155, 234.280 223.462 C 229.191 221.046, 220.351 221.089, 216.186 223.549 C 213.086 225.380, 212.916 225.381, 209.882 223.589 C 206.952 221.859, 203.214 221.570, 192 222.208 C 190.625 222.286, 187.475 222.082, 185 221.754 C 182.525 221.426, 179.600 221.365, 178.500 221.618 M 177.250 228.639 C 176.563 228.929, 176 230.003, 176 231.026 C 176 232.498, 176.884 232.949, 180.250 233.193 C 184.035 233.466, 184.500 233.774, 184.500 236 C 184.500 238.222, 184 238.556, 180 239 C 176.246 239.417, 175.446 239.881, 175.174 241.800 C 174.860 244.017, 175.074 244.089, 181.174 243.800 L 187.500 243.500 187.500 236 L 187.500 228.500 183 228.306 C 180.525 228.199, 177.938 228.349, 177.250 228.639 M 196.667 228.667 C 196.300 229.033, 196 232.633, 196 236.667 L 196 244 199.365 244 C 201.255 244, 203.885 243.092, 205.365 241.927 C 208.929 239.124, 209.169 231.932, 205.777 229.557 C 203.534 227.985, 197.898 227.435, 196.667 228.667 M 221.667 228.667 C 221.300 229.033, 221 232.633, 221 236.667 L 221 244 224.365 244 C 226.255 244, 228.885 243.092, 230.365 241.927 C 233.929 239.124, 234.169 231.932, 230.777 229.557 C 228.534 227.985, 222.898 227.435, 221.667 228.667 M 314.935 230.671 C 313.437 234.612, 314.153 236.458, 317.323 236.823 C 320.499 237.188, 325 234.673, 325 232.534 C 325 230.622, 321.098 228, 318.253 228 C 316.678 228, 315.630 228.844, 314.935 230.671 M 268.037 232.680 C 265.027 236.506, 265.422 238, 269.441 238 C 273.380 238, 274.436 236.872, 273.603 233.553 C 272.730 230.076, 270.376 229.707, 268.037 232.680 M 339.174 232.314 C 336.842 234.797, 336.359 238.933, 338.035 242.066 C 339.541 244.880, 345.396 244.700, 347.443 241.777 C 349.233 239.222, 349.470 234.747, 347.965 231.934 C 346.519 229.233, 341.881 229.433, 339.174 232.314 M 325.570 241.887 C 324.832 243.081, 327.653 245.332, 328.913 244.554 C 329.463 244.214, 329.659 243.275, 329.349 242.468 C 328.728 240.849, 326.430 240.495, 325.570 241.887" stroke="none" fill="#fbc92b" fill-rule="evenodd"/><path d="M 190.980 10.739 C 175.949 18.618, 11.478 111.162, 9.787 112.692 C 8.829 113.560, 6.909 116.547, 5.522 119.331 L 3 124.393 3.006 229.946 C 3.009 301.798, 3.353 336.730, 4.081 339.351 C 4.709 341.614, 6.899 344.914, 9.391 347.351 C 12.413 350.306, 40.087 366.319, 105.567 403 L 197.500 454.500 206.012 454.500 L 214.525 454.500 303.512 404.591 C 352.456 377.141, 394.845 353.196, 397.711 351.378 C 400.577 349.561, 404.177 346.178, 405.711 343.861 L 408.500 339.647 408.768 233.246 C 408.956 158.593, 408.709 125.634, 407.942 122.784 C 405.809 114.865, 401.067 111.425, 363 90.185 C 343.475 79.290, 302.300 56.233, 271.500 38.947 L 215.500 7.517 206.980 7.168 C 198.705 6.828, 198.243 6.931, 190.980 10.739 M 194.500 82.123 C 174.667 83.489, 155.707 88.917, 137.198 98.527 C 122.897 105.953, 112.237 113.796, 100.517 125.517 C 69.269 156.764, 53.954 198.093, 57.165 242.504 C 61.906 308.068, 109.727 362.562, 175.306 377.129 C 189.714 380.330, 215.076 380.808, 230.500 378.169 C 271.555 371.146, 307.392 347.976, 330.196 313.712 C 332.835 309.745, 334.996 305.988, 334.997 305.361 C 334.999 304.510, 272.125 269, 270.615 269 C 270.460 269, 268.609 271.503, 266.502 274.562 C 258.526 286.143, 245.217 296.087, 230.926 301.144 C 188.782 316.057, 143.801 291.429, 133.517 247.811 C 131.369 238.696, 131.563 222.030, 133.925 212.792 C 139.259 191.938, 152.730 175.086, 172.139 164.989 C 183.034 159.320, 192.869 157, 206 157 C 231.773 157, 253.134 168.365, 268.446 190.226 C 269.710 192.031, 271.522 191.142, 301.879 173.817 C 319.532 163.743, 333.981 154.995, 333.988 154.378 C 334.016 151.775, 320.758 134.763, 311.483 125.502 C 299.752 113.787, 289.085 105.943, 274.802 98.527 C 256.592 89.072, 237.401 83.466, 219.735 82.440 C 214.656 82.145, 209.375 81.782, 208 81.634 C 206.625 81.486, 200.550 81.706, 194.500 82.123 M 178.500 221.618 C 177.400 221.871, 175.591 222.268, 174.480 222.500 C 173.369 222.733, 171.484 223.832, 170.292 224.943 C 168.137 226.951, 168.119 226.951, 167.494 224.982 C 167.030 223.521, 165.977 223, 163.483 223 L 160.100 223 159.800 228.750 L 159.500 234.500 154.750 234.805 L 150 235.110 150 229.677 C 150 223.480, 148.446 221.420, 144.513 222.407 C 142.183 222.992, 142 223.469, 142 228.960 C 142 232.217, 141.550 235.160, 141 235.500 C 140.450 235.840, 140 237.190, 140 238.500 C 140 239.810, 140.450 241.160, 141 241.500 C 141.550 241.840, 142 244.116, 142 246.559 C 142 250.756, 142.154 251, 144.800 251 C 148.482 251, 150 249.336, 150 245.300 C 150 242.056, 150.076 242, 154.500 242 L 159 242 159 246.500 C 159 250.949, 159.038 251, 162.393 251 C 164.453 251, 166.007 250.424, 166.349 249.533 C 166.826 248.289, 167.414 248.260, 170.206 249.343 C 172.491 250.230, 178.301 250.545, 189.173 250.374 C 202.382 250.166, 205.439 249.823, 208.617 248.192 C 212.372 246.265, 212.395 246.266, 214.055 248.317 C 215.450 250.039, 216.819 250.365, 222.421 250.313 C 226.620 250.273, 230.619 249.574, 233.136 248.439 C 237.241 246.587, 238.029 246.850, 239.322 250.500 C 239.534 251.099, 243.445 251.385, 249.072 251.213 C 257.548 250.955, 258.725 250.680, 261.099 248.405 C 263.015 246.570, 265.223 245.729, 269.209 245.318 C 274.485 244.773, 274.771 244.869, 276.938 247.914 C 278.697 250.383, 279.661 250.928, 281.345 250.403 C 285.034 249.252, 285.016 249.489, 282.496 235.250 L 281.744 231 286.336 231 L 290.928 231 291.214 240.750 C 291.492 250.237, 291.566 250.509, 293.944 250.845 C 297.730 251.379, 299 248.638, 299 239.931 C 299 231.833, 300.126 229.492, 303.690 230.179 C 305.996 230.623, 306.549 233.606, 304.897 236.693 C 303.910 238.536, 303.870 239.562, 304.730 240.939 C 305.353 241.937, 306.170 244.388, 306.545 246.386 C 307.053 249.097, 307.835 250.172, 309.626 250.621 C 312.356 251.306, 315.347 249.348, 314.589 247.372 C 313.633 244.879, 315.982 244.916, 319.714 247.452 C 323.942 250.325, 328.139 250.742, 330.019 248.477 C 331.144 247.122, 331.533 247.120, 333.571 248.454 C 337.184 250.822, 343.012 251.338, 347.730 249.708 C 351.316 248.470, 352.135 248.457, 353.103 249.624 C 354.769 251.632, 358.765 251.307, 359.965 249.066 C 360.534 248.002, 361 245.377, 361 243.232 C 361 241.088, 361.297 239.036, 361.660 238.673 C 362.023 238.310, 364.761 240.710, 367.744 244.007 C 377.146 254.396, 381.204 251.637, 381.841 234.425 C 382.191 224.960, 382.074 224.158, 380.251 223.580 C 375.724 222.143, 374.038 224.757, 374.014 233.250 C 373.997 238.881, 372.324 239.511, 369.606 234.910 C 366.472 229.605, 361.881 225, 359.725 225 C 358.588 225, 356.904 225.682, 355.983 226.515 C 354.477 227.878, 354.027 227.809, 351.502 225.823 C 347.674 222.812, 340.487 222.805, 336.270 225.808 C 332.399 228.564, 332.186 228.553, 328.887 225.391 C 326.713 223.309, 324.880 222.680, 319.801 222.272 C 314.034 221.809, 313.151 222.002, 310.383 224.331 C 307.509 226.750, 307.229 226.801, 305.629 225.200 C 303.403 222.975, 285.716 222.744, 281.710 224.888 C 279.330 226.161, 278.858 226.058, 275.981 223.638 C 274.257 222.187, 272.016 221, 271 221 C 267.907 221, 263.061 225.935, 259.822 232.383 C 258.133 235.748, 256.107 238.874, 255.320 239.331 C 254.533 239.788, 253.464 241.279, 252.945 242.644 C 252.165 244.695, 251.436 245.072, 248.751 244.813 L 245.500 244.500 245.918 237.500 C 246.783 222.986, 246.731 222.533, 244.168 222.170 C 242.885 221.988, 240.986 222.608, 239.947 223.548 C 238.166 225.160, 237.847 225.155, 234.280 223.462 C 229.191 221.046, 220.351 221.089, 216.186 223.549 C 213.086 225.380, 212.916 225.381, 209.882 223.589 C 206.952 221.859, 203.214 221.570, 192 222.208 C 190.625 222.286, 187.475 222.082, 185 221.754 C 182.525 221.426, 179.600 221.365, 178.500 221.618 M 177.250 228.639 C 176.563 228.929, 176 230.003, 176 231.026 C 176 232.498, 176.884 232.949, 180.250 233.193 C 184.035 233.466, 184.500 233.774, 184.500 236 C 184.500 238.222, 184 238.556, 180 239 C 176.246 239.417, 175.446 239.881, 175.174 241.800 C 174.860 244.017, 175.074 244.089, 181.174 243.800 L 187.500 243.500 187.500 236 L 187.500 228.500 183 228.306 C 180.525 228.199, 177.938 228.349, 177.250 228.639 M 196.667 228.667 C 196.300 229.033, 196 232.633, 196 236.667 L 196 244 199.365 244 C 201.255 244, 203.885 243.092, 205.365 241.927 C 208.929 239.124, 209.169 231.932, 205.777 229.557 C 203.534 227.985, 197.898 227.435, 196.667 228.667 M 221.667 228.667 C 221.300 229.033, 221 232.633, 221 236.667 L 221 244 224.365 244 C 226.255 244, 228.885 243.092, 230.365 241.927 C 233.929 239.124, 234.169 231.932, 230.777 229.557 C 228.534 227.985, 222.898 227.435, 221.667 228.667 M 314.935 230.671 C 313.437 234.612, 314.153 236.458, 317.323 236.823 C 320.499 237.188, 325 234.673, 325 232.534 C 325 230.622, 321.098 228, 318.253 228 C 316.678 228, 315.630 228.844, 314.935 230.671 M 268.037 232.680 C 265.027 236.506, 265.422 238, 269.441 238 C 273.380 238, 274.436 236.872, 273.603 233.553 C 272.730 230.076, 270.376 229.707, 268.037 232.680 M 339.174 232.314 C 336.842 234.797, 336.359 238.933, 338.035 242.066 C 339.541 244.880, 345.396 244.700, 347.443 241.777 C 349.233 239.222, 349.470 234.747, 347.965 231.934 C 346.519 229.233, 341.881 229.433, 339.174 232.314 M 325.570 241.887 C 324.832 243.081, 327.653 245.332, 328.913 244.554 C 329.463 244.214, 329.659 243.275, 329.349 242.468 C 328.728 240.849, 326.430 240.495, 325.570 241.887" stroke="none" fill="#af4645" fill-rule="evenodd"/></svg>